# xmcd CD database file
#
# Track frame offsets:
#	150
#	8125
#	29480
#	50537
#	68795
#	88007
#	108330
#	131545
#	151062
#	170770
#	182977
#
# Disc length: 2561 seconds
#
# Revision: 0
# Processed by: cddbd v1.5.1PL0 Copyright (c) Steve Scherf et al.
# Submitted via: CDex 1.51
#
DISCID=8e09ff0b
DTITLE=田村ゆかり - 天使は瞳の中に
DYEAR=2001
DGENRE=JPop
TTITLE0=プロローグ〜lalala・・・〜
TTITLE1=summer melody -album version-
TTITLE2=まっすぐな心
TTITLE3=春色の風、今も・・・。
TTITLE4=in the Oak wood
TTITLE5=スマイル　スマイル
TTITLE6=天使じゃなくても
TTITLE7=あの夏を忘れない
TTITLE8=A Day Of Little Girl 〜姫とウサギとおしゃべりこねこ〜 -album version-
TTITLE9=青空にあいたい -album version-
TTITLE10=エピローグ
EXTD=YEAR: 2001
EXTT0=
EXTT1=
EXTT2=
EXTT3=
EXTT4=
EXTT5=
EXTT6=
EXTT7=
EXTT8=
EXTT9=
EXTT10=
PLAYORDER=
